<svg width="2043" height="717" viewBox="0 0 2043 717" fill="none" xmlns="http://www.w3.org/2000/svg">
<path d="M766.852 420.391C766.852 409.323 762.945 400.859 755.133 395C747.32 389.01 733.258 382.76 712.945 376.25C692.633 369.609 676.552 363.099 664.703 356.719C632.411 339.271 616.266 315.768 616.266 286.211C616.266 270.846 620.562 257.174 629.156 245.195C637.88 233.086 650.315 223.646 666.461 216.875C682.737 210.104 700.966 206.719 721.148 206.719C741.461 206.719 759.56 210.43 775.445 217.852C791.331 225.143 803.635 235.495 812.359 248.906C821.214 262.318 825.641 277.552 825.641 294.609H767.047C767.047 281.589 762.945 271.497 754.742 264.336C746.539 257.044 735.016 253.398 720.172 253.398C705.849 253.398 694.716 256.458 686.773 262.578C678.831 268.568 674.859 276.51 674.859 286.406C674.859 295.651 679.482 303.398 688.727 309.648C698.102 315.898 711.839 321.758 729.938 327.227C763.271 337.253 787.555 349.688 802.789 364.531C818.023 379.375 825.641 397.865 825.641 420C825.641 444.609 816.331 463.945 797.711 478.008C779.091 491.94 754.026 498.906 722.516 498.906C700.641 498.906 680.719 494.935 662.75 486.992C644.781 478.919 631.044 467.917 621.539 453.984C612.164 440.052 607.477 423.906 607.477 405.547H666.266C666.266 436.927 685.016 452.617 722.516 452.617C736.448 452.617 747.32 449.818 755.133 444.219C762.945 438.49 766.852 430.547 766.852 420.391Z" fill="white"/>
<path d="M916.852 306.719C931.826 288.75 950.641 279.766 973.297 279.766C1019.13 279.766 1042.37 306.393 1043.02 359.648V495H986.578V361.211C986.578 349.102 983.974 340.182 978.766 334.453C973.557 328.594 964.898 325.664 952.789 325.664C936.253 325.664 924.273 332.044 916.852 344.805V495H860.406V195H916.852V306.719Z" fill="white"/>
<path d="M1208.06 495C1205.46 489.922 1203.57 483.607 1202.4 476.055C1188.73 491.289 1170.95 498.906 1149.08 498.906C1128.38 498.906 1111.19 492.917 1097.52 480.938C1083.97 468.958 1077.2 453.854 1077.2 435.625C1077.2 413.229 1085.47 396.042 1102.01 384.062C1118.67 372.083 1142.7 366.029 1174.08 365.898H1200.05V353.789C1200.05 344.023 1197.52 336.211 1192.44 330.352C1187.49 324.492 1179.61 321.562 1168.8 321.562C1159.3 321.562 1151.81 323.841 1146.34 328.398C1141.01 332.956 1138.34 339.206 1138.34 347.148H1081.89C1081.89 334.909 1085.67 323.581 1093.22 313.164C1100.77 302.747 1111.45 294.609 1125.25 288.75C1139.05 282.76 1154.55 279.766 1171.73 279.766C1197.78 279.766 1218.41 286.341 1233.65 299.492C1249.01 312.513 1256.7 330.872 1256.7 354.57V446.172C1256.83 466.224 1259.62 481.393 1265.09 491.68V495H1208.06ZM1161.38 455.742C1169.72 455.742 1177.4 453.919 1184.43 450.273C1191.46 446.497 1196.67 441.484 1200.05 435.234V398.906H1178.96C1150.71 398.906 1135.67 408.672 1133.84 428.203L1133.65 431.523C1133.65 438.555 1136.12 444.349 1141.07 448.906C1146.02 453.464 1152.79 455.742 1161.38 455.742Z" fill="white"/>
<path d="M1376.81 410.234L1356.5 430.547V495H1300.05V195H1356.5V361.211L1367.44 347.148L1421.54 283.672H1489.31L1412.95 371.758L1495.95 495H1431.11L1376.81 410.234Z" fill="white"/>
<path d="M1607.09 498.906C1576.1 498.906 1550.84 489.401 1531.3 470.391C1511.9 451.38 1502.2 426.055 1502.2 394.414V388.945C1502.2 367.721 1506.3 348.776 1514.51 332.109C1522.71 315.312 1534.3 302.422 1549.27 293.438C1564.38 284.323 1581.57 279.766 1600.84 279.766C1629.74 279.766 1652.46 288.88 1669 307.109C1685.67 325.339 1694 351.185 1694 384.648V407.695H1559.43C1561.25 421.497 1566.72 432.565 1575.84 440.898C1585.08 449.232 1596.73 453.398 1610.8 453.398C1632.54 453.398 1649.53 445.521 1661.77 429.766L1689.51 460.82C1681.04 472.799 1669.59 482.174 1655.13 488.945C1640.68 495.586 1624.66 498.906 1607.09 498.906ZM1600.64 325.469C1589.44 325.469 1580.33 329.245 1573.3 336.797C1566.4 344.349 1561.97 355.156 1560.02 369.219H1638.53V364.727C1638.27 352.227 1634.89 342.591 1628.38 335.82C1621.86 328.919 1612.62 325.469 1600.64 325.469Z" fill="white"/>
<ellipse cx="359" cy="560" rx="135" ry="32" fill="black" fill-opacity="0.15"/>
<mask id="path-3-outside-1" maskUnits="userSpaceOnUse" x="255.977" y="428.585" width="202" height="152" fill="black">
<rect fill="white" x="255.977" y="428.585" width="202" height="152"/>
<path fill-rule="evenodd" clip-rule="evenodd" d="M364.977 446.585C364.977 442.166 361.395 438.585 356.977 438.585V438.585C352.559 438.585 348.977 442.166 348.977 446.585V517.064C348.977 526.851 341.145 534.785 331.385 535.507C293.586 538.301 265.977 547.128 265.977 557.585C265.977 558.126 266.33 558.581 266.829 558.79C283.489 565.788 317.602 570.585 356.977 570.585C396.353 570.585 430.465 565.788 447.125 558.79C447.624 558.581 447.977 558.126 447.977 557.585C447.977 547.128 420.368 538.301 382.569 535.507C372.809 534.785 364.977 526.851 364.977 517.064V446.585Z"/>
</mask>
<path fill-rule="evenodd" clip-rule="evenodd" d="M364.977 446.585C364.977 442.166 361.395 438.585 356.977 438.585V438.585C352.559 438.585 348.977 442.166 348.977 446.585V517.064C348.977 526.851 341.145 534.785 331.385 535.507C293.586 538.301 265.977 547.128 265.977 557.585C265.977 558.126 266.33 558.581 266.829 558.79C283.489 565.788 317.602 570.585 356.977 570.585C396.353 570.585 430.465 565.788 447.125 558.79C447.624 558.581 447.977 558.126 447.977 557.585C447.977 547.128 420.368 538.301 382.569 535.507C372.809 534.785 364.977 526.851 364.977 517.064V446.585Z" fill="#00B8F0"/>
<path d="M266.829 558.79L270.702 549.571L270.702 549.571L266.829 558.79ZM447.125 558.79L450.998 568.01L450.998 568.01L447.125 558.79ZM382.569 535.507L381.832 545.48L382.569 535.507ZM331.385 535.507L332.123 545.48L331.385 535.507ZM358.977 517.064V446.585H338.977V517.064H358.977ZM275.977 557.585C275.977 559.706 274.605 559.794 276.812 558.168C278.792 556.71 282.314 554.938 287.66 553.162C298.229 549.651 313.693 546.842 332.123 545.48L330.648 525.534C311.278 526.966 294.039 529.968 281.354 534.182C275.072 536.269 269.329 538.84 264.951 542.065C260.801 545.122 255.977 550.235 255.977 557.585H275.977ZM270.702 549.571C273.285 550.656 275.977 553.457 275.977 557.585H255.977C255.977 562.795 259.376 566.506 262.956 568.01L270.702 549.571ZM356.977 560.585C317.886 560.585 285.443 555.763 270.702 549.571L262.956 568.01C281.535 575.814 317.317 580.585 356.977 580.585V560.585ZM443.252 549.571C428.511 555.763 396.069 560.585 356.977 560.585V580.585C396.637 580.585 432.42 575.814 450.998 568.01L443.252 549.571ZM437.977 557.585C437.977 553.457 440.669 550.656 443.252 549.571L450.998 568.01C454.578 566.506 457.977 562.795 457.977 557.585H437.977ZM381.832 545.48C400.261 546.842 415.726 549.651 426.295 553.162C431.641 554.938 435.162 556.71 437.142 558.168C439.35 559.794 437.977 559.706 437.977 557.585H457.977C457.977 550.235 453.153 545.122 449.003 542.065C444.625 538.84 438.882 536.269 432.601 534.182C419.915 529.968 402.676 526.966 383.306 525.534L381.832 545.48ZM354.977 446.585V517.064H374.977V446.585H354.977ZM383.306 525.534C378.43 525.173 374.977 521.281 374.977 517.064H354.977C354.977 532.421 367.188 544.397 381.832 545.48L383.306 525.534ZM338.977 517.064C338.977 521.281 335.525 525.173 330.648 525.534L332.123 545.48C346.766 544.397 358.977 532.421 358.977 517.064H338.977ZM356.977 448.585C355.872 448.585 354.977 447.689 354.977 446.585H374.977C374.977 436.644 366.918 428.585 356.977 428.585V448.585ZM356.977 428.585C347.036 428.585 338.977 436.644 338.977 446.585H358.977C358.977 447.689 358.082 448.585 356.977 448.585V428.585Z" fill="#45413C" mask="url(#path-3-outside-1)"/>
<mask id="path-5-outside-2" maskUnits="userSpaceOnUse" x="250.977" y="178.957" width="212" height="304" fill="black">
<rect fill="white" x="250.977" y="178.957" width="212" height="304"/>
<path fill-rule="evenodd" clip-rule="evenodd" d="M437.755 190.011C438.382 189.797 439.027 190.239 439.078 190.9L452.974 372.543C452.976 372.566 452.958 372.585 452.935 372.585V372.585C452.913 372.585 452.896 372.603 452.897 372.625C452.95 373.938 452.977 375.258 452.977 376.585C452.977 429.604 409.996 472.585 356.977 472.585C303.958 472.585 260.977 429.604 260.977 376.585C260.977 375.258 261.004 373.938 261.057 372.625C261.058 372.603 261.041 372.585 261.019 372.585V372.585C260.996 372.585 260.979 372.566 260.98 372.543L274.876 190.9C274.927 190.239 275.572 189.797 276.199 190.011C282.942 192.305 316.766 203.085 356.977 203.085C397.189 203.085 431.012 192.305 437.755 190.011Z"/>
</mask>
<path fill-rule="evenodd" clip-rule="evenodd" d="M437.755 190.011C438.382 189.797 439.027 190.239 439.078 190.9L452.974 372.543C452.976 372.566 452.958 372.585 452.935 372.585V372.585C452.913 372.585 452.896 372.603 452.897 372.625C452.95 373.938 452.977 375.258 452.977 376.585C452.977 429.604 409.996 472.585 356.977 472.585C303.958 472.585 260.977 429.604 260.977 376.585C260.977 375.258 261.004 373.938 261.057 372.625C261.058 372.603 261.041 372.585 261.019 372.585V372.585C260.996 372.585 260.979 372.566 260.98 372.543L274.876 190.9C274.927 190.239 275.572 189.797 276.199 190.011C282.942 192.305 316.766 203.085 356.977 203.085C397.189 203.085 431.012 192.305 437.755 190.011Z" fill="#00B8F0"/>
<path d="M356.977 203.085L356.977 193.085L356.977 193.085L356.977 203.085ZM274.876 190.9L264.906 190.137L274.876 190.9ZM276.199 190.011L272.978 199.478L276.199 190.011ZM260.98 372.543L270.951 373.306L260.98 372.543ZM452.897 372.625L442.905 373.03L452.897 372.625ZM261.057 372.625L271.049 373.03L261.057 372.625ZM439.078 190.9L449.049 190.137L439.078 190.9ZM437.755 190.011L434.534 180.544L437.755 190.011ZM452.974 372.543L462.945 371.78L462.945 371.78L452.974 372.543ZM462.945 371.78L449.049 190.137L429.107 191.663L443.003 373.306L462.945 371.78ZM462.977 376.585C462.977 375.123 462.947 373.668 462.889 372.219L442.905 373.03C442.953 374.208 442.977 375.393 442.977 376.585H462.977ZM356.977 482.585C415.519 482.585 462.977 435.127 462.977 376.585H442.977C442.977 424.081 404.474 462.585 356.977 462.585V482.585ZM356.977 462.585C309.481 462.585 270.977 424.081 270.977 376.585H250.977C250.977 435.127 298.435 482.585 356.977 482.585V462.585ZM270.977 376.585C270.977 375.393 271.001 374.208 271.049 373.03L251.065 372.219C251.007 373.668 250.977 375.123 250.977 376.585H270.977ZM270.951 373.306L284.847 191.663L264.906 190.137L251.009 371.78L270.951 373.306ZM272.978 199.478C280.165 201.923 315.182 213.085 356.977 213.085L356.977 193.085C318.349 193.085 285.719 182.687 279.42 180.544L272.978 199.478ZM434.534 180.544C428.235 182.687 395.605 193.085 356.977 193.085V213.085C398.772 213.085 433.789 201.923 440.976 199.478L434.534 180.544ZM284.847 191.663C284.419 197.262 278.775 201.45 272.978 199.478L279.42 180.544C272.369 178.145 265.435 183.217 264.906 190.137L284.847 191.663ZM261.019 362.585C266.82 362.585 271.394 367.522 270.951 373.306L251.009 371.78C250.563 377.609 255.173 382.585 261.019 382.585V362.585ZM452.935 362.585C447.23 362.585 442.674 367.332 442.905 373.03L462.889 372.219C463.118 377.873 458.597 382.585 452.935 382.585V362.585ZM271.049 373.03C271.28 367.332 266.724 362.585 261.019 362.585V382.585C255.357 382.585 250.836 377.873 251.065 372.219L271.049 373.03ZM449.049 190.137C448.519 183.217 441.585 178.145 434.534 180.544L440.976 199.478C435.179 201.45 429.535 197.262 429.107 191.663L449.049 190.137ZM443.003 373.306C442.561 367.522 447.134 362.585 452.935 362.585V382.585C458.781 382.585 463.391 377.609 462.945 371.78L443.003 373.306Z" fill="#45413C" mask="url(#path-5-outside-2)"/>
<ellipse cx="356.977" cy="260.585" rx="74" ry="14" fill="#BC5E00"/>
<path fill-rule="evenodd" clip-rule="evenodd" d="M388.116 201.059C397.797 199.833 406.566 198.189 413.99 196.529L410.7 305.105C410.666 306.209 409.744 307.077 408.64 307.043L386.925 306.385C385.821 306.352 384.953 305.43 384.987 304.326L388.116 201.059Z" fill="#9F5AE5"/>
<path d="M388.116 201.059L387.488 196.099L383.248 196.636L383.118 200.908L388.116 201.059ZM413.99 196.529L418.988 196.68L419.183 190.244L412.899 191.649L413.99 196.529ZM410.7 305.105L405.702 304.953L405.702 304.953L410.7 305.105ZM408.64 307.043L408.489 312.041L408.489 312.041L408.64 307.043ZM386.925 306.385L387.077 301.388L387.077 301.388L386.925 306.385ZM384.987 304.326L379.989 304.174L379.989 304.174L384.987 304.326ZM388.744 206.02C398.603 204.771 407.527 203.097 415.081 201.408L412.899 191.649C405.605 193.28 396.992 194.895 387.488 196.099L388.744 206.02ZM415.697 305.256L418.988 196.68L408.992 196.377L405.702 304.953L415.697 305.256ZM408.489 312.041C412.353 312.158 415.58 309.121 415.697 305.256L405.702 304.953C405.752 303.297 407.135 301.996 408.791 302.046L408.489 312.041ZM386.774 311.383L408.489 312.041L408.791 302.046L387.077 301.388L386.774 311.383ZM379.989 304.174C379.872 308.039 382.91 311.266 386.774 311.383L387.077 301.388C388.733 301.438 390.035 302.821 389.984 304.477L379.989 304.174ZM383.118 200.908L379.989 304.174L389.984 304.477L393.114 201.211L383.118 200.908Z" fill="#45413C"/>
<path fill-rule="evenodd" clip-rule="evenodd" d="M286.041 260.585H282.973L275.979 363.014C275.978 363.033 275.993 363.049 276.012 363.049C276.031 363.049 276.046 363.064 276.045 363.083C276 364.325 275.977 365.575 275.977 366.83C275.977 416.952 312.242 457.585 356.977 457.585C401.712 457.585 437.977 416.952 437.977 366.83C437.977 365.575 437.954 364.325 437.909 363.083C437.909 363.064 437.923 363.049 437.942 363.049C437.961 363.049 437.976 363.033 437.975 363.014L430.981 260.585H427.913C418.815 266.368 390.499 270.585 356.977 270.585C323.455 270.585 295.139 266.368 286.041 260.585Z" fill="#FF8A14"/>
<path fill-rule="evenodd" clip-rule="evenodd" d="M286.041 260.585H282.973L275.979 363.014C275.978 363.033 275.993 363.049 276.012 363.049C276.031 363.049 276.046 363.064 276.045 363.083C276 364.325 275.977 365.575 275.977 366.83C275.977 416.952 312.242 457.585 356.977 457.585C401.712 457.585 437.977 416.952 437.977 366.83C437.977 365.575 437.954 364.325 437.909 363.083C437.909 363.064 437.923 363.049 437.942 363.049C437.961 363.049 437.976 363.033 437.975 363.014L430.981 260.585H427.913C418.815 266.368 390.499 270.585 356.977 270.585C323.455 270.585 295.139 266.368 286.041 260.585Z" fill="#FF8A14"/>
<path fill-rule="evenodd" clip-rule="evenodd" d="M276.487 377.073C281.028 422.373 315.333 457.585 356.977 457.585C398.759 457.585 433.153 422.139 437.511 376.622C411.272 382.489 383.986 385.585 355.977 385.585C328.695 385.585 302.098 382.648 276.487 377.073Z" fill="#FF6242"/>
<path fill-rule="evenodd" clip-rule="evenodd" d="M271.025 419.39C264.594 406.503 260.977 391.966 260.977 376.585C260.977 375.258 261.004 373.938 261.057 372.625C261.058 372.603 261.041 372.585 261.019 372.585C260.996 372.585 260.979 372.566 260.98 372.543L274.876 190.9C274.927 190.239 275.572 189.797 276.199 190.011C282.942 192.305 316.766 203.085 356.977 203.085C397.189 203.085 431.012 192.305 437.755 190.011C438.382 189.797 439.027 190.239 439.078 190.9L445.05 268.967C418.226 345.555 352.195 403.718 271.025 419.39Z" fill="white" fill-opacity="0.29"/>
<mask id="path-14-outside-3" maskUnits="userSpaceOnUse" x="269.534" y="166.087" width="178" height="47" fill="black">
<rect fill="white" x="269.534" y="166.087" width="178" height="47"/>
<path fill-rule="evenodd" clip-rule="evenodd" d="M280.335 191.349C279.267 191.018 279.267 188.151 280.335 187.821C292.035 184.197 321.593 176.24 355.973 176.087C356.525 176.084 356.977 176.532 356.977 177.085V189.585L356.977 177.085C356.977 176.532 357.429 176.084 357.981 176.087C395.522 176.254 427.313 185.726 436.383 188.701C437.27 188.991 437.27 190.178 436.383 190.469C427.233 193.47 394.954 203.085 356.977 203.085C322.17 203.085 292.149 195.008 280.335 191.349Z"/>
</mask>
<path fill-rule="evenodd" clip-rule="evenodd" d="M280.335 191.349C279.267 191.018 279.267 188.151 280.335 187.821C292.035 184.197 321.593 176.24 355.973 176.087C356.525 176.084 356.977 176.532 356.977 177.085V189.585L356.977 177.085C356.977 176.532 357.429 176.084 357.981 176.087C395.522 176.254 427.313 185.726 436.383 188.701C437.27 188.991 437.27 190.178 436.383 190.469C427.233 193.47 394.954 203.085 356.977 203.085C322.17 203.085 292.149 195.008 280.335 191.349Z" fill="#00B8F0"/>
<path d="M436.383 188.701L433.267 198.203L436.383 188.701ZM356.977 177.085L366.977 177.085L356.977 177.085ZM280.335 187.821L277.376 178.268L280.335 187.821ZM355.928 166.087C320.169 166.246 289.554 174.497 277.376 178.268L283.293 197.373C294.516 193.897 323.018 186.234 356.017 186.087L355.928 166.087ZM366.977 189.585V177.085H346.977V189.585H366.977ZM346.977 177.085L346.977 189.585L366.977 189.585L366.977 177.085L346.977 177.085ZM439.5 179.199C429.97 176.073 397.052 166.261 358.026 166.087L357.937 186.087C393.992 186.247 424.657 195.379 433.267 198.203L439.5 179.199ZM356.977 213.085C396.465 213.085 429.889 203.123 439.5 199.971L433.267 180.967C424.576 183.817 393.443 193.085 356.977 193.085V213.085ZM277.376 200.901C289.67 204.708 320.765 213.085 356.977 213.085V193.085C323.574 193.085 294.628 185.307 283.293 181.796L277.376 200.901ZM433.267 198.203C424.976 195.483 424.975 183.686 433.267 180.967L439.5 199.971C449.565 196.67 449.564 182.5 439.5 179.199L433.267 198.203ZM366.977 177.085C366.977 182.101 362.896 186.109 357.937 186.087L358.026 166.087C351.962 166.06 346.977 170.964 346.977 177.085L366.977 177.085ZM277.376 178.268C273.053 179.607 271.171 183.016 270.503 184.618C269.747 186.434 269.534 188.202 269.534 189.585C269.534 190.968 269.747 192.735 270.503 194.551C271.171 196.154 273.053 199.562 277.376 200.901L283.293 181.796C287.083 182.97 288.564 185.896 288.965 186.858C289.454 188.033 289.534 189.001 289.534 189.585C289.534 190.168 289.454 191.136 288.965 192.312C288.564 193.273 287.083 196.199 283.293 197.373L277.376 178.268ZM356.017 186.087C351.058 186.109 346.977 182.101 346.977 177.085H366.977C366.977 170.964 361.992 166.06 355.928 166.087L356.017 186.087Z" fill="#45413C" mask="url(#path-14-outside-3)"/>
<mask id="path-16-outside-4" maskUnits="userSpaceOnUse" x="194.108" y="116.367" width="133.284" height="118.094" fill="black">
<rect fill="white" x="194.108" y="116.367" width="133.284" height="118.094"/>
<path fill-rule="evenodd" clip-rule="evenodd" d="M247.665 154.106C226.685 167.521 219.094 193.983 228.715 216.113C230.476 220.165 235.493 221.237 239.216 218.857L309.985 173.606C313.708 171.226 314.839 166.222 311.9 162.923C295.85 144.905 268.645 140.692 247.665 154.106Z"/>
</mask>
<path fill-rule="evenodd" clip-rule="evenodd" d="M247.665 154.106C226.685 167.521 219.094 193.983 228.715 216.113C230.476 220.165 235.493 221.237 239.216 218.857L309.985 173.606C313.708 171.226 314.839 166.222 311.9 162.923C295.85 144.905 268.645 140.692 247.665 154.106Z" fill="#D6B027"/>
<path d="M228.715 216.113L221.378 219.302L228.715 216.113ZM236.052 212.923C227.973 194.34 234.358 172.111 251.975 160.846L243.356 147.367C219.013 162.932 210.216 193.626 221.378 219.302L236.052 212.923ZM305.676 166.866L234.906 212.117L243.525 225.597L314.295 180.346L305.676 166.866ZM251.975 160.846C269.592 149.582 292.449 153.114 305.927 168.244L317.874 157.602C299.251 136.695 267.699 131.801 243.356 147.367L251.975 160.846ZM314.295 180.346C321.389 175.81 324.672 165.233 317.874 157.602L305.927 168.244C305.806 168.108 305.682 167.895 305.616 167.638C305.554 167.396 305.565 167.203 305.588 167.084C305.629 166.873 305.71 166.844 305.676 166.866L314.295 180.346ZM221.378 219.302C225.453 228.675 236.431 230.133 243.525 225.597L234.906 212.117C234.871 212.139 234.932 212.077 235.141 212.128C235.258 212.157 235.439 212.229 235.632 212.386C235.838 212.554 235.979 212.756 236.052 212.923L221.378 219.302Z" fill="#45413C" mask="url(#path-16-outside-4)"/>
<path fill-rule="evenodd" clip-rule="evenodd" d="M309.143 174.145C296.945 155.067 271.591 149.491 252.514 161.689C233.437 173.887 227.86 199.241 240.058 218.318L309.143 174.145Z" fill="#FFEDAF"/>
<path fill-rule="evenodd" clip-rule="evenodd" d="M413.868 200.556L415.061 161.184C415.073 160.781 415.207 160.391 415.445 160.065L468.804 86.9963C469.455 86.1042 469.26 84.853 468.368 84.2016L450.817 71.385C449.927 70.7353 448.68 70.9273 448.027 71.8143L389.998 150.627C389.758 150.954 389.622 151.347 389.61 151.752L387.994 205.075C397.671 203.853 406.439 202.214 413.868 200.556Z" fill="#9F5AE5"/>
<path d="M413.868 200.556L414.956 205.436L418.748 204.59L418.865 200.708L413.868 200.556ZM415.061 161.184L410.063 161.033L410.063 161.033L415.061 161.184ZM415.445 160.065L411.407 157.117L411.407 157.117L415.445 160.065ZM468.804 86.9963L472.842 89.945L472.842 89.945L468.804 86.9963ZM468.368 84.2016L471.317 80.1637L471.317 80.1636L468.368 84.2016ZM450.817 71.385L447.868 75.4229L447.868 75.4229L450.817 71.385ZM448.027 71.8143L452.053 74.7789L452.053 74.7789L448.027 71.8143ZM389.998 150.627L385.972 147.663L385.972 147.663L389.998 150.627ZM389.61 151.752L394.608 151.904L394.608 151.904L389.61 151.752ZM387.994 205.075L382.996 204.923L382.819 210.768L388.62 210.035L387.994 205.075ZM418.865 200.708L420.058 161.336L410.063 161.033L408.87 200.405L418.865 200.708ZM420.058 161.336C420.04 161.941 419.839 162.526 419.483 163.014L411.407 157.117C410.574 158.257 410.106 159.622 410.063 161.033L420.058 161.336ZM419.483 163.014L472.842 89.945L464.766 84.0475L411.407 157.117L419.483 163.014ZM472.842 89.945C475.122 86.8228 474.439 82.4436 471.317 80.1637L465.419 88.2395C464.081 87.2624 463.789 85.3856 464.766 84.0475L472.842 89.945ZM471.317 80.1636L453.766 67.347L447.868 75.4229L465.419 88.2395L471.317 80.1636ZM453.766 67.347C450.652 65.0734 446.286 65.7452 444.001 68.8498L452.053 74.7789C451.074 76.1094 449.203 76.3973 447.868 75.4229L453.766 67.347ZM444.001 68.8498L385.972 147.663L394.025 153.592L452.053 74.7789L444.001 68.8498ZM385.972 147.663C385.13 148.807 384.655 150.18 384.612 151.601L394.608 151.904C394.589 152.513 394.386 153.101 394.025 153.592L385.972 147.663ZM384.612 151.601L382.996 204.923L392.992 205.226L394.608 151.904L384.612 151.601ZM388.62 210.035C398.474 208.792 407.398 207.123 414.956 205.436L412.779 195.676C405.48 197.305 396.868 198.915 387.368 200.114L388.62 210.035Z" fill="#45413C"/>
</svg>
